<svg width="32" height="32" viewBox="0 0 32 32" fill="none" xmlns="http://www.w3.org/2000/svg">
<path d="M26 0H6C2.68629 0 0 2.68629 0 6V26C0 29.3137 2.68629 32 6 32H26C29.3137 32 32 29.3137 32 26V6C32 2.68629 29.3137 0 26 0Z" fill="#2D2926"/>
<path d="M21.7786 9.33019V6.14663C21.7786 6.14663 17.6733 5.34989 15.8301 7.11047C14.0695 8.79172 14.3649 11.7187 14.3649 13.351H11.3906V16.8274H14.3649V26H18.092V16.8696H21.0654L21.7718 13.351H17.9417C17.9417 11.1971 17.5662 8.73264 21.7786 9.33019Z" fill="#CCCCCC"/>
</svg>
