<svg width="32" height="33" viewBox="0 0 32 33" fill="none" xmlns="http://www.w3.org/2000/svg">
<path d="M26 0H6C2.68629 0 0 2.74555 0 6.13235V26.5735C0 29.9603 2.68629 32.7059 6 32.7059H26C29.3137 32.7059 32 29.9603 32 26.5735V6.13235C32 2.74555 29.3137 0 26 0Z" fill="#2D2926"/>
<path d="M19.4734 22.3759H20.9184L11.5946 9.53861H10.0445L19.4734 22.3744V22.3759ZM20.3883 8H22.9955L17.3005 14.7777L24 24H18.7547L14.6454 18.4066L9.94409 24H7.33536L13.4275 16.7499L7 8H12.3797L16.0935 13.1132L20.3883 8Z" fill="#CCCCCC"/>
</svg>
