<svg width="32" height="32" viewBox="0 0 32 32" fill="none" xmlns="http://www.w3.org/2000/svg">
<path d="M26 0H6C2.68629 0 0 2.68629 0 6V26C0 29.3137 2.68629 32 6 32H26C29.3137 32 32 29.3137 32 26V6C32 2.68629 29.3137 0 26 0Z" fill="#2D2926"/>
<path d="M22.4677 19.6434H9.22266V6.39844H22.4677V19.6434ZM15.0227 12.9384L16.6077 15.6524H18.7587V10.3714H16.6907V13.0714L15.0227 10.3714H12.9307V15.6524H15.0227V12.9384Z" fill="#CCCCCC"/>
<path d="M9.75195 20.6602H22.246L19.5909 23.8604H12.329L9.75195 20.6602Z" fill="#CCCCCC"/>
<path d="M13.4609 25.1895L16.0379 28.001L18.4199 25.1895H13.4609Z" fill="#CCCCCC"/>
</svg>
