<svg width="32" height="32" viewBox="0 0 32 32" fill="none" xmlns="http://www.w3.org/2000/svg">
<path d="M26 0H6C2.68629 0 0 2.68629 0 6V26C0 29.3137 2.68629 32 6 32H26C29.3137 32 32 29.3137 32 26V6C32 2.68629 29.3137 0 26 0Z" fill="#2D2926"/>
<path d="M16.002 4.99805C13.014 4.99805 12.641 5.01205 11.467 5.06405C10.5562 5.08352 9.65529 5.25627 8.80195 5.57505C8.06585 5.85044 7.39892 6.28357 6.84795 6.84405C6.28697 7.3946 5.85377 8.06165 5.57895 8.79805C5.25918 9.65284 5.08641 10.5556 5.06795 11.468C5.01295 12.637 5.00195 13.01 5.00195 15.998C5.00195 18.986 5.01595 19.359 5.06795 20.533C5.08696 21.4454 5.25972 22.3481 5.57895 23.203C5.8552 23.9373 6.28826 24.6024 6.84795 25.152C7.39875 25.7127 8.06573 26.1459 8.80195 26.421C9.65686 26.7405 10.5595 26.9136 11.472 26.933C12.641 26.987 13.014 26.998 16.002 26.998C18.99 26.998 19.363 26.984 20.537 26.932C21.4493 26.9126 22.3519 26.7398 23.207 26.421C23.9377 26.1386 24.6014 25.7065 25.1554 25.1525C25.7094 24.5985 26.1415 23.9348 26.424 23.204C26.7435 22.3492 26.9166 21.4465 26.936 20.534C26.991 19.359 27.002 18.986 27.002 15.998C27.002 13.01 26.988 12.637 26.936 11.463C26.9163 10.5506 26.7432 9.64803 26.424 8.79305C26.1475 8.05892 25.7145 7.39383 25.155 6.84405C24.6063 6.28362 23.9413 5.85043 23.207 5.57505C22.3522 5.25503 21.4495 5.08192 20.537 5.06305C19.363 5.00905 18.99 4.99805 16.002 4.99805ZM16.002 6.97805C18.938 6.97805 19.288 6.99305 20.448 7.04305C21.1451 7.05137 21.8355 7.17992 22.489 7.42305C22.9641 7.60469 23.3956 7.88443 23.7554 8.24403C24.1151 8.60362 24.3951 9.035 24.577 9.51005C24.8195 10.1636 24.9477 10.854 24.956 11.551C25.008 12.711 25.02 13.06 25.02 15.997C25.02 18.934 25.002 19.284 24.952 20.444C24.9392 21.1413 24.8087 21.8313 24.566 22.485C24.387 22.9625 24.1058 23.3949 23.742 23.752C23.3864 24.1161 22.9543 24.3966 22.477 24.573C21.8207 24.8156 21.1276 24.9438 20.428 24.952C19.26 25.004 18.916 25.016 15.974 25.016C13.032 25.016 12.687 24.998 11.52 24.948C10.8198 24.9354 10.1268 24.8049 9.46995 24.562C8.99088 24.3859 8.55754 24.1043 8.20195 23.738C7.83398 23.3849 7.55176 22.9522 7.37695 22.473C7.13468 21.8165 7.00453 21.1238 6.99195 20.424C6.95095 19.269 6.93595 18.912 6.93595 15.984C6.93595 13.056 6.95495 12.698 6.99695 11.528C7.00962 10.829 7.13977 10.137 7.38195 9.48105C7.55259 9.00076 7.83344 8.56716 8.20195 8.21505C8.55301 7.8455 8.98598 7.5636 9.46595 7.39205C10.1176 7.14797 10.8062 7.01742 11.502 7.00605C12.671 6.96505 13.015 6.95105 15.956 6.95105L16.002 6.97805ZM16.002 10.35C14.8846 10.35 13.7924 10.6814 12.8634 11.3021C11.9344 11.9229 11.2104 12.8052 10.7829 13.8375C10.3553 14.8698 10.2435 16.0057 10.4616 17.1015C10.6796 18.1973 11.2177 19.2039 12.0079 19.9938C12.798 20.7838 13.8046 21.3218 14.9005 21.5396C15.9964 21.7575 17.1322 21.6455 18.1644 21.2178C19.1966 20.79 20.0788 20.0658 20.6994 19.1367C21.32 18.2076 21.6512 17.1154 21.651 15.998C21.651 15.2563 21.5048 14.5217 21.2209 13.8364C20.937 13.1511 20.5209 12.5284 19.9963 12.004C19.4718 11.4795 18.849 11.0635 18.1637 10.7797C17.4783 10.4959 16.7437 10.3499 16.002 10.35ZM16.002 19.665C15.2767 19.665 14.5677 19.45 13.9647 19.047C13.3616 18.6441 12.8916 18.0714 12.6141 17.4013C12.3365 16.7313 12.2639 15.994 12.4054 15.2827C12.5469 14.5713 12.8962 13.9179 13.409 13.4051C13.9218 12.8922 14.5752 12.543 15.2866 12.4015C15.9979 12.26 16.7352 12.3326 17.4053 12.6102C18.0753 12.8877 18.648 13.3577 19.051 13.9608C19.4539 14.5638 19.669 15.2728 19.669 15.998C19.6691 16.4796 19.5743 16.9565 19.3901 17.4015C19.2058 17.8465 18.9357 18.2508 18.5952 18.5913C18.2547 18.9318 17.8504 19.2019 17.4054 19.3862C16.9604 19.5704 16.4835 19.6652 16.002 19.665ZM23.194 10.127C23.1942 10.3882 23.1169 10.6435 22.972 10.8607C22.8271 11.0779 22.621 11.2472 22.3798 11.3473C22.1386 11.4473 21.8732 11.4736 21.617 11.4228C21.3609 11.372 21.1256 11.2463 20.9409 11.0618C20.7562 10.8772 20.6304 10.642 20.5794 10.3859C20.5284 10.1299 20.5545 9.86439 20.6543 9.62314C20.7542 9.38188 20.9234 9.17566 21.1405 9.03058C21.3576 8.88549 21.6128 8.80805 21.874 8.80805C22.2238 8.80831 22.5592 8.94733 22.8067 9.1946C23.0541 9.44188 23.1934 9.77722 23.194 10.127Z" fill="#CCCCCC"/>
</svg>
