<svg width="32" height="32" viewBox="0 0 32 32" fill="none" xmlns="http://www.w3.org/2000/svg">
<path d="M26 0H6C2.68629 0 0 2.68629 0 6V26C0 29.3137 2.68629 32 6 32H26C29.3137 32 32 29.3137 32 26V6C32 2.68629 29.3137 0 26 0Z" fill="#2D2926"/>
<path d="M20.022 8.00071H11.978C11.7389 7.9824 11.5021 8.05903 11.3191 8.214C11.136 8.36898 11.0214 8.58982 11 8.82871V15.6187C11.0216 15.8574 11.1364 16.078 11.3194 16.2328C11.5024 16.3875 11.739 16.464 11.978 16.4457H15.687C15.6019 17.3478 15.2542 18.2051 14.687 18.9117C14.0917 19.6151 13.4092 20.2398 12.656 20.7707C12.601 20.808 12.5554 20.8574 12.5226 20.9151C12.4898 20.9729 12.4708 21.0374 12.467 21.1037C12.4773 21.2107 12.5264 21.3103 12.605 21.3837L15.192 23.8527C15.2585 23.9121 15.3364 23.9574 15.421 23.9857C15.5348 24.0177 15.6565 24.0059 15.762 23.9527C17.2823 23.0694 18.5578 21.8203 19.4726 20.3187C20.3873 18.8171 20.9124 17.1108 21 15.3547C21 15.3437 21 8.82871 21 8.82871C20.9786 8.58982 20.864 8.36898 20.6809 8.214C20.4979 8.05903 20.2611 7.9824 20.022 8.00071Z" fill="#CCCCCC"/>
</svg>
