<svg width="32" height="32" viewBox="0 0 32 32" fill="none" xmlns="http://www.w3.org/2000/svg">
<path d="M26 0H6C2.68629 0 0 2.68629 0 6V26C0 29.3137 2.68629 32 6 32H26C29.3137 32 32 29.3137 32 26V6C32 2.68629 29.3137 0 26 0Z" fill="#2D2926"/>
<path d="M26.5716 15.6995C26.5834 17.4754 26.43 19.2486 26.1133 20.9961C25.9879 21.4624 25.7422 21.8875 25.4009 22.229C25.0595 22.5704 24.6344 22.8162 24.1682 22.9416C22.4522 23.4 15.5727 23.4 15.5727 23.4C15.5727 23.4 8.69312 23.4 6.97713 22.9416C6.51088 22.8162 6.08575 22.5705 5.74436 22.2291C5.40297 21.8876 5.15729 21.4624 5.03197 20.9961C4.41903 17.492 4.41903 13.908 5.03197 10.4039C5.15737 9.93763 5.40309 9.51247 5.74447 9.17102C6.08585 8.82958 6.51092 8.58384 6.97713 8.45842C8.69312 8 15.5727 8 15.5727 8C15.5727 8 22.4522 8 24.1682 8.45842C24.6344 8.58384 25.0595 8.82958 25.4009 9.17102C25.7422 9.51247 25.9879 9.93763 26.1133 10.4039C26.4299 12.1511 26.5833 13.9239 26.5716 15.6995ZM13.3718 19.0001L19.0871 15.6995L13.3718 12.3989V19.0001Z" fill="#CCCCCC"/>
</svg>
