<svg width="32" height="32" viewBox="0 0 32 32" fill="none" xmlns="http://www.w3.org/2000/svg">
<path d="M26 0H6C2.68629 0 0 2.68629 0 6V26C0 29.3137 2.68629 32 6 32H26C29.3137 32 32 29.3137 32 26V6C32 2.68629 29.3137 0 26 0Z" fill="#2D2926"/>
<path d="M9.33606 14.8594C9.25609 14.8584 9.17675 14.8739 9.10309 14.9051C9.02942 14.9362 8.96299 14.9823 8.90802 15.0404C8.79415 15.1578 8.73047 15.3149 8.73047 15.4784C8.73047 15.6419 8.79415 15.799 8.90802 15.9164C8.96295 15.9745 9.02936 16.0206 9.10303 16.0518C9.1767 16.083 9.25608 16.0985 9.33606 16.0974C9.50023 16.0974 9.65766 16.0322 9.77374 15.9161C9.88983 15.8 9.95502 15.6426 9.95502 15.4784C9.95502 15.3142 9.88983 15.1568 9.77374 15.0407C9.65766 14.9246 9.50023 14.8594 9.33606 14.8594Z" fill="#CCCCCC"/>
<path d="M17.3335 14.8497C17.2537 14.8485 17.1745 14.864 17.101 14.8952C17.0274 14.9264 16.9612 14.9725 16.9065 15.0307C16.7924 15.1479 16.7285 15.305 16.7285 15.4687C16.7285 15.6323 16.7924 15.7894 16.9065 15.9067C16.9613 15.9647 17.0275 16.0108 17.101 16.042C17.1745 16.0731 17.2537 16.0887 17.3335 16.0877C17.4977 16.0877 17.6551 16.0225 17.7712 15.9064C17.8873 15.7903 17.9525 15.6328 17.9525 15.4687C17.9525 15.3045 17.8873 15.1471 17.7712 15.031C17.6551 14.9149 17.4977 14.8497 17.3335 14.8497Z" fill="#CCCCCC"/>
<path d="M22.6657 14.8594C22.5857 14.8585 22.5065 14.874 22.4328 14.9052C22.3591 14.9363 22.2927 14.9824 22.2377 15.0404C22.1241 15.1579 22.0605 15.315 22.0605 15.4784C22.0605 15.6419 22.1241 15.7989 22.2377 15.9164C22.2927 15.9745 22.3591 16.0206 22.4328 16.0517C22.5065 16.0829 22.5857 16.0984 22.6657 16.0974C22.8299 16.0974 22.9874 16.0322 23.1035 15.9161C23.2195 15.8 23.2847 15.6426 23.2847 15.4784C23.2847 15.3142 23.2195 15.1568 23.1035 15.0407C22.9874 14.9246 22.8299 14.8594 22.6657 14.8594Z" fill="#CCCCCC"/>
<path d="M24.7744 7.77344H7.22437C6.57595 7.77528 5.9546 8.03369 5.49609 8.49219C5.03759 8.95069 4.77919 9.57204 4.77734 10.2205V20.1454C4.77919 20.7939 5.03759 21.4152 5.49609 21.8737C5.9546 22.3322 6.57595 22.5906 7.22437 22.5924H14.1154C14.1154 22.5924 15.4463 26.2255 15.9313 26.2255C16.4163 26.2255 17.8563 22.5924 17.8563 22.5924H24.7744C25.4228 22.5906 26.0441 22.3322 26.5026 21.8737C26.9611 21.4152 27.2195 20.7939 27.2214 20.1454V10.2205C27.2195 9.57204 26.9611 8.95069 26.5026 8.49219C26.0441 8.03369 25.4228 7.77528 24.7744 7.77344ZM11.3013 16.9365C10.9437 17.2605 10.4875 17.4548 10.006 17.488C9.5246 17.5212 9.04602 17.3914 8.64734 17.1194H8.63037V17.3984H7.31238V11.6515H8.63037V13.8514H8.64734C9.04722 13.554 9.53744 13.4035 10.0353 13.4254C10.2795 13.4349 10.5189 13.4956 10.7381 13.6036C10.9572 13.7116 11.1512 13.8645 11.3074 14.0525C11.6456 14.4698 11.8271 14.9923 11.8204 15.5294C11.8346 15.787 11.7959 16.0447 11.7066 16.2867C11.6173 16.5287 11.4794 16.7499 11.3013 16.9365ZM14.1293 17.4414H12.7853V13.8854C12.809 13.6781 12.7561 13.4693 12.6366 13.2982C12.5171 13.1271 12.3392 13.0056 12.1364 12.9565V11.5334C12.7126 11.6021 13.2406 11.8894 13.6113 12.336C13.9819 12.7826 14.167 13.3544 14.1284 13.9334L14.1293 17.4414ZM19.4023 16.3514C19.2866 16.6125 19.1185 16.847 18.9083 17.0404C18.6951 17.2397 18.4452 17.3957 18.1724 17.4995C17.8921 17.6064 17.5944 17.6607 17.2944 17.6595C16.9989 17.6605 16.7059 17.6062 16.4304 17.4995C16.1579 17.3945 15.9078 17.2387 15.6934 17.0404C15.482 16.8425 15.312 16.6046 15.1934 16.3405C15.0806 16.0851 15.0224 15.8091 15.0224 15.5299C15.0224 15.2508 15.0806 14.9748 15.1934 14.7195C15.3122 14.4554 15.4821 14.2175 15.6934 14.0194C15.9077 13.8208 16.1578 13.6647 16.4304 13.5594C16.7059 13.453 16.999 13.3991 17.2944 13.4005C17.5943 13.3989 17.892 13.4528 18.1724 13.5594C18.4452 13.6636 18.6952 13.8198 18.9083 14.0194C19.1185 14.2128 19.2866 14.4473 19.4023 14.7084C19.5136 14.967 19.571 15.2455 19.571 15.5269C19.571 15.8084 19.5136 16.0869 19.4023 16.3455V16.3514ZM24.6863 16.9225C24.7308 17.2904 24.6967 17.6635 24.5862 18.0173C24.4757 18.371 24.2913 18.6973 24.0453 18.9745C23.777 19.1912 23.4631 19.3444 23.1271 19.4226C22.7912 19.5009 22.4419 19.5022 22.1053 19.4265V18.3835C22.2547 18.4054 22.4069 18.3968 22.5529 18.3582C22.6988 18.3196 22.8353 18.2518 22.9542 18.1589C23.0732 18.066 23.172 17.9498 23.2448 17.8176C23.3175 17.6853 23.3625 17.5397 23.3773 17.3895V17.1224H23.3613C23.2065 17.3207 23.004 17.4767 22.7726 17.5756C22.5413 17.6746 22.2887 17.7134 22.0383 17.6884C21.7885 17.6966 21.54 17.6496 21.3105 17.5507C21.0809 17.4518 20.876 17.3036 20.7103 17.1165C20.3738 16.6913 20.2042 16.1579 20.2333 15.6165C20.2012 15.014 20.39 14.4206 20.7643 13.9474C20.9442 13.7474 21.1662 13.5898 21.4144 13.4861C21.6625 13.3823 21.9306 13.3349 22.1993 13.3474C22.4109 13.3336 22.6231 13.3633 22.8228 13.4347C23.0225 13.5061 23.2055 13.6176 23.3604 13.7625H23.3763V13.4474H24.6863V16.9225Z" fill="#CCCCCC"/>
</svg>
